<svg width="111" height="34" viewBox="0 0 111 34" fill="none" xmlns="http://www.w3.org/2000/svg">
<path d="M5.47168 9.0498L3.90723 10.6758V15H2.21973V2.20312H3.90723V8.53125L9.59375 2.20312H11.6328L6.59668 7.85449L12.0283 15H10.0068L5.47168 9.0498ZM19.1211 15C19.0273 14.8125 18.9512 14.4785 18.8926 13.998C18.1367 14.7832 17.2344 15.1758 16.1855 15.1758C15.248 15.1758 14.4775 14.9121 13.874 14.3848C13.2764 13.8516 12.9775 13.1777 12.9775 12.3633C12.9775 11.373 13.3525 10.6055 14.1025 10.0605C14.8584 9.50977 15.9189 9.23438 17.2842 9.23438H18.8662V8.4873C18.8662 7.91895 18.6963 7.46777 18.3564 7.13379C18.0166 6.79395 17.5156 6.62402 16.8535 6.62402C16.2734 6.62402 15.7871 6.77051 15.3945 7.06348C15.002 7.35645 14.8057 7.71094 14.8057 8.12695H13.1709C13.1709 7.65234 13.3379 7.19531 13.6719 6.75586C14.0117 6.31055 14.4688 5.95898 15.043 5.70117C15.623 5.44336 16.2588 5.31445 16.9502 5.31445C18.0459 5.31445 18.9043 5.58984 19.5254 6.14062C20.1465 6.68555 20.4688 7.43848 20.4922 8.39941V12.7764C20.4922 13.6494 20.6035 14.3438 20.8262 14.8594V15H19.1211ZM16.4229 13.7607C16.9326 13.7607 17.416 13.6289 17.873 13.3652C18.3301 13.1016 18.6611 12.7588 18.8662 12.3369V10.3857H17.5918C15.5996 10.3857 14.6035 10.9688 14.6035 12.1348C14.6035 12.6445 14.7734 13.043 15.1133 13.3301C15.4531 13.6172 15.8896 13.7607 16.4229 13.7607ZM31.0918 10.3506C31.0918 11.8037 30.7578 12.9727 30.0898 13.8574C29.4219 14.7363 28.5254 15.1758 27.4004 15.1758C26.1992 15.1758 25.2705 14.751 24.6143 13.9014L24.5352 15H23.041V1.5H24.667V6.53613C25.3232 5.72168 26.2285 5.31445 27.3828 5.31445C28.5371 5.31445 29.4424 5.75098 30.0986 6.62402C30.7607 7.49707 31.0918 8.69238 31.0918 10.21V10.3506ZM29.4658 10.166C29.4658 9.05859 29.252 8.20312 28.8242 7.59961C28.3965 6.99609 27.7812 6.69434 26.9785 6.69434C25.9062 6.69434 25.1357 7.19238 24.667 8.18848V12.3018C25.165 13.2979 25.9414 13.7959 26.9961 13.7959C27.7754 13.7959 28.3818 13.4941 28.8154 12.8906C29.249 12.2871 29.4658 11.3789 29.4658 10.166ZM39.0195 15C38.9258 14.8125 38.8496 14.4785 38.791 13.998C38.0352 14.7832 37.1328 15.1758 36.084 15.1758C35.1465 15.1758 34.376 14.9121 33.7725 14.3848C33.1748 13.8516 32.876 13.1777 32.876 12.3633C32.876 11.373 33.251 10.6055 34.001 10.0605C34.7568 9.50977 35.8174 9.23438 37.1826 9.23438H38.7646V8.4873C38.7646 7.91895 38.5947 7.46777 38.2549 7.13379C37.915 6.79395 37.4141 6.62402 36.752 6.62402C36.1719 6.62402 35.6855 6.77051 35.293 7.06348C34.9004 7.35645 34.7041 7.71094 34.7041 8.12695H33.0693C33.0693 7.65234 33.2363 7.19531 33.5703 6.75586C33.9102 6.31055 34.3672 5.95898 34.9414 5.70117C35.5215 5.44336 36.1572 5.31445 36.8486 5.31445C37.9443 5.31445 38.8027 5.58984 39.4238 6.14062C40.0449 6.68555 40.3672 7.43848 40.3906 8.39941V12.7764C40.3906 13.6494 40.502 14.3438 40.7246 14.8594V15H39.0195ZM36.3213 13.7607C36.8311 13.7607 37.3145 13.6289 37.7715 13.3652C38.2285 13.1016 38.5596 12.7588 38.7646 12.3369V10.3857H37.4902C35.498 10.3857 34.502 10.9688 34.502 12.1348C34.502 12.6445 34.6719 13.043 35.0117 13.3301C35.3516 13.6172 35.7881 13.7607 36.3213 13.7607ZM44.7061 15H43.0801V1.5H44.7061V15ZM49.083 15H47.457V5.49023H49.083V15ZM47.3252 2.96777C47.3252 2.7041 47.4043 2.48145 47.5625 2.2998C47.7266 2.11816 47.9668 2.02734 48.2832 2.02734C48.5996 2.02734 48.8398 2.11816 49.0039 2.2998C49.168 2.48145 49.25 2.7041 49.25 2.96777C49.25 3.23145 49.168 3.45117 49.0039 3.62695C48.8398 3.80273 48.5996 3.89062 48.2832 3.89062C47.9668 3.89062 47.7266 3.80273 47.5625 3.62695C47.4043 3.45117 47.3252 3.23145 47.3252 2.96777ZM57.2305 12.4775C57.2305 12.0381 57.0635 11.6982 56.7295 11.458C56.4014 11.2119 55.8242 11.001 54.998 10.8252C54.1777 10.6494 53.5244 10.4385 53.0381 10.1924C52.5576 9.94629 52.2002 9.65332 51.9658 9.31348C51.7373 8.97363 51.623 8.56934 51.623 8.10059C51.623 7.32129 51.9512 6.66211 52.6074 6.12305C53.2695 5.58398 54.1133 5.31445 55.1387 5.31445C56.2168 5.31445 57.0898 5.59277 57.7578 6.14941C58.4316 6.70605 58.7686 7.41797 58.7686 8.28516H57.1338C57.1338 7.83984 56.9434 7.45605 56.5625 7.13379C56.1875 6.81152 55.7129 6.65039 55.1387 6.65039C54.5469 6.65039 54.084 6.7793 53.75 7.03711C53.416 7.29492 53.249 7.63184 53.249 8.04785C53.249 8.44043 53.4043 8.73633 53.7148 8.93555C54.0254 9.13477 54.585 9.3252 55.3936 9.50684C56.208 9.68848 56.8672 9.90527 57.3711 10.1572C57.875 10.4092 58.2471 10.7139 58.4873 11.0713C58.7334 11.4229 58.8564 11.8535 58.8564 12.3633C58.8564 13.2129 58.5166 13.8955 57.8369 14.4111C57.1572 14.9209 56.2754 15.1758 55.1914 15.1758C54.4297 15.1758 53.7559 15.041 53.1699 14.7715C52.584 14.502 52.124 14.127 51.79 13.6465C51.4619 13.1602 51.2979 12.6357 51.2979 12.0732H52.9238C52.9531 12.6182 53.1699 13.0518 53.5742 13.374C53.9844 13.6904 54.5234 13.8486 55.1914 13.8486C55.8066 13.8486 56.2988 13.7256 56.668 13.4795C57.043 13.2275 57.2305 12.8936 57.2305 12.4775ZM64.9209 15.1758C63.6318 15.1758 62.583 14.7539 61.7744 13.9102C60.9658 13.0605 60.5615 11.9268 60.5615 10.5088V10.21C60.5615 9.2666 60.7402 8.42578 61.0977 7.6875C61.4609 6.94336 61.9648 6.36328 62.6094 5.94727C63.2598 5.52539 63.9629 5.31445 64.7188 5.31445C65.9551 5.31445 66.916 5.72168 67.6016 6.53613C68.2871 7.35059 68.6299 8.5166 68.6299 10.0342V10.7109H62.1875C62.2109 11.6484 62.4834 12.4072 63.0049 12.9873C63.5322 13.5615 64.2002 13.8486 65.0088 13.8486C65.583 13.8486 66.0693 13.7314 66.4678 13.4971C66.8662 13.2627 67.2148 12.9521 67.5137 12.5654L68.5068 13.3389C67.71 14.5635 66.5146 15.1758 64.9209 15.1758ZM64.7188 6.65039C64.0625 6.65039 63.5117 6.89062 63.0664 7.37109C62.6211 7.8457 62.3457 8.51367 62.2402 9.375H67.0039V9.25195C66.957 8.42578 66.7344 7.78711 66.3359 7.33594C65.9375 6.87891 65.3984 6.65039 64.7188 6.65039ZM75.1162 6.94922C74.8701 6.9082 74.6035 6.8877 74.3164 6.8877C73.25 6.8877 72.5264 7.3418 72.1455 8.25V15H70.5195V5.49023H72.1016L72.1279 6.58887C72.6611 5.73926 73.417 5.31445 74.3955 5.31445C74.7119 5.31445 74.9521 5.35547 75.1162 5.4375V6.94922ZM79.915 12.7939L82.2705 5.49023H83.9316L80.5215 15H79.2822L75.8369 5.49023H77.498L79.915 12.7939Z" fill="black"/>
<path d="M51.5332 28.0674C51.4189 29.0449 51.0571 29.8003 50.4478 30.3335C49.8426 30.8625 49.0365 31.127 48.0293 31.127C46.9375 31.127 46.0615 30.7355 45.4014 29.9526C44.7454 29.1698 44.4175 28.1224 44.4175 26.8105V25.9219C44.4175 25.0628 44.5698 24.3075 44.8745 23.6558C45.1834 23.0041 45.6193 22.5047 46.1821 22.1577C46.745 21.8065 47.3966 21.6309 48.1372 21.6309C49.119 21.6309 49.9061 21.9059 50.4985 22.4561C51.091 23.002 51.4359 23.7594 51.5332 24.7285H50.3081C50.2023 23.9922 49.9717 23.459 49.6162 23.1289C49.265 22.7988 48.772 22.6338 48.1372 22.6338C47.3586 22.6338 46.7471 22.9215 46.3027 23.4971C45.8626 24.0726 45.6426 24.8914 45.6426 25.9536V26.8486C45.6426 27.8516 45.8521 28.6493 46.271 29.2417C46.6899 29.8341 47.276 30.1304 48.0293 30.1304C48.7064 30.1304 49.2248 29.978 49.5845 29.6733C49.9484 29.3644 50.1896 28.8291 50.3081 28.0674H51.5332ZM54.2944 31H53.1201V21.25H54.2944V31ZM55.8687 27.5024C55.8687 26.8296 55.9998 26.2244 56.2622 25.687C56.5288 25.1496 56.897 24.7349 57.3667 24.4429C57.8407 24.1509 58.3802 24.0049 58.9854 24.0049C59.9206 24.0049 60.6759 24.3286 61.2515 24.9761C61.8312 25.6235 62.1211 26.4847 62.1211 27.5596V27.6421C62.1211 28.3107 61.992 28.9116 61.7339 29.4448C61.48 29.9738 61.1139 30.3864 60.6357 30.6826C60.1618 30.9788 59.6159 31.127 58.998 31.127C58.0671 31.127 57.3117 30.8032 56.7319 30.1558C56.1564 29.5083 55.8687 28.6514 55.8687 27.585V27.5024ZM57.0493 27.6421C57.0493 28.4038 57.2249 29.0153 57.5762 29.4766C57.9316 29.9378 58.4056 30.1685 58.998 30.1685C59.5947 30.1685 60.0687 29.9357 60.4199 29.4702C60.7712 29.0005 60.9468 28.3446 60.9468 27.5024C60.9468 26.7492 60.7669 26.1398 60.4072 25.6743C60.0518 25.2046 59.5778 24.9697 58.9854 24.9697C58.4056 24.9697 57.938 25.2004 57.5825 25.6616C57.2271 26.1229 57.0493 26.783 57.0493 27.6421ZM67.834 30.3208C67.377 30.8582 66.7062 31.127 65.8218 31.127C65.0897 31.127 64.5311 30.9154 64.146 30.4922C63.7651 30.0648 63.5726 29.4342 63.5684 28.6006V24.1318H64.7427V28.5688C64.7427 29.6099 65.1659 30.1304 66.0122 30.1304C66.9093 30.1304 67.506 29.7961 67.8022 29.1274V24.1318H68.9766V31H67.8594L67.834 30.3208ZM70.481 27.5088C70.481 26.4551 70.7306 25.6087 71.23 24.9697C71.7293 24.3265 72.3831 24.0049 73.1914 24.0049C73.9954 24.0049 74.6323 24.2799 75.1021 24.8301V21.25H76.2764V31H75.1973L75.1401 30.2637C74.6704 30.8392 74.0166 31.127 73.1787 31.127C72.3831 31.127 71.7336 30.8011 71.23 30.1494C70.7306 29.4977 70.481 28.6471 70.481 27.5977V27.5088ZM71.6553 27.6421C71.6553 28.4207 71.8161 29.0301 72.1377 29.4702C72.4593 29.9103 72.9036 30.1304 73.4707 30.1304C74.2155 30.1304 74.7593 29.7961 75.1021 29.1274V25.9727C74.7508 25.3252 74.2113 25.0015 73.4834 25.0015C72.9079 25.0015 72.4593 25.2236 72.1377 25.668C71.8161 26.1123 71.6553 26.7703 71.6553 27.6421ZM81.0117 26.8804C79.9665 26.5799 79.2048 26.2118 78.7266 25.7759C78.2526 25.3358 78.0156 24.7941 78.0156 24.1509C78.0156 23.423 78.3055 22.8221 78.8853 22.3481C79.4692 21.87 80.2267 21.6309 81.1577 21.6309C81.7925 21.6309 82.3574 21.7536 82.8525 21.999C83.3519 22.2445 83.737 22.583 84.0078 23.0146C84.2829 23.4463 84.4204 23.9181 84.4204 24.4302H83.1953C83.1953 23.8716 83.0176 23.4336 82.6621 23.1162C82.3066 22.7946 81.8052 22.6338 81.1577 22.6338C80.5568 22.6338 80.0871 22.7671 79.7485 23.0337C79.4142 23.2961 79.2471 23.6621 79.2471 24.1318C79.2471 24.5085 79.4058 24.828 79.7231 25.0903C80.0448 25.3485 80.5885 25.5854 81.3545 25.8013C82.1247 26.0171 82.7256 26.2562 83.1572 26.5186C83.5931 26.7767 83.9147 27.0793 84.1221 27.4263C84.3337 27.7733 84.4395 28.1816 84.4395 28.6514C84.4395 29.4004 84.1475 30.0013 83.5635 30.4541C82.9795 30.9027 82.1987 31.127 81.2212 31.127C80.5864 31.127 79.994 31.0063 79.4438 30.7651C78.8937 30.5197 78.4684 30.1854 78.168 29.7622C77.8717 29.339 77.7236 28.8587 77.7236 28.3213H78.9487C78.9487 28.8799 79.154 29.3221 79.5645 29.6479C79.9792 29.9696 80.5314 30.1304 81.2212 30.1304C81.8644 30.1304 82.3574 29.9992 82.7002 29.7368C83.043 29.4744 83.2144 29.1169 83.2144 28.6641C83.2144 28.2113 83.0557 27.8621 82.7383 27.6167C82.4209 27.367 81.8454 27.1216 81.0117 26.8804ZM86.9976 24.9634C87.5181 24.3244 88.1951 24.0049 89.0288 24.0049C90.4803 24.0049 91.2124 24.8237 91.2251 26.4614V31H90.0508V26.4551C90.0465 25.96 89.9323 25.5939 89.708 25.3569C89.488 25.12 89.1431 25.0015 88.6733 25.0015C88.2925 25.0015 87.9582 25.103 87.6704 25.3062C87.3826 25.5093 87.1584 25.7759 86.9976 26.106V31H85.8232V21.25H86.9976V24.9634ZM97.2236 31C97.1559 30.8646 97.1009 30.6234 97.0586 30.2764C96.5127 30.8434 95.861 31.127 95.1035 31.127C94.4264 31.127 93.87 30.9365 93.4341 30.5557C93.0024 30.1706 92.7866 29.6839 92.7866 29.0957C92.7866 28.3805 93.0575 27.8262 93.5991 27.4326C94.145 27.0348 94.911 26.8359 95.897 26.8359H97.0396V26.2964C97.0396 25.8859 96.9168 25.5601 96.6714 25.3188C96.4259 25.0734 96.0641 24.9507 95.5859 24.9507C95.167 24.9507 94.8158 25.0565 94.5322 25.2681C94.2487 25.4797 94.1069 25.7357 94.1069 26.0361H92.9263C92.9263 25.6934 93.0469 25.3633 93.2881 25.0459C93.5335 24.7243 93.8636 24.4704 94.2783 24.2842C94.6973 24.098 95.1564 24.0049 95.6558 24.0049C96.4471 24.0049 97.0671 24.2038 97.5156 24.6016C97.9642 24.9951 98.1969 25.5389 98.2139 26.2329V29.394C98.2139 30.0246 98.2943 30.526 98.4551 30.8984V31H97.2236ZM95.2749 30.105C95.6431 30.105 95.9922 30.0098 96.3223 29.8193C96.6523 29.6289 96.8914 29.3813 97.0396 29.0767V27.6675H96.1191C94.6803 27.6675 93.9609 28.0885 93.9609 28.9307C93.9609 29.2988 94.0837 29.5866 94.3291 29.7939C94.5745 30.0013 94.8898 30.105 95.2749 30.105ZM103.375 25.1855C103.197 25.1559 103.004 25.1411 102.797 25.1411C102.027 25.1411 101.504 25.4691 101.229 26.125V31H100.055V24.1318H101.197L101.216 24.9253C101.601 24.3117 102.147 24.0049 102.854 24.0049C103.083 24.0049 103.256 24.0345 103.375 24.0938V25.1855ZM107.183 31.127C106.252 31.127 105.495 30.8223 104.911 30.2129C104.327 29.5993 104.035 28.7804 104.035 27.7563V27.5405C104.035 26.8592 104.164 26.252 104.422 25.7188C104.684 25.1813 105.048 24.7624 105.514 24.4619C105.983 24.1572 106.491 24.0049 107.037 24.0049C107.93 24.0049 108.624 24.299 109.119 24.8872C109.614 25.4754 109.862 26.3175 109.862 27.4136V27.9023H105.209C105.226 28.5794 105.423 29.1274 105.799 29.5464C106.18 29.9611 106.663 30.1685 107.247 30.1685C107.661 30.1685 108.013 30.0838 108.3 29.9146C108.588 29.7453 108.84 29.521 109.056 29.2417L109.773 29.8003C109.197 30.6847 108.334 31.127 107.183 31.127ZM107.037 24.9697C106.563 24.9697 106.165 25.1432 105.844 25.4902C105.522 25.833 105.323 26.3154 105.247 26.9375H108.688V26.8486C108.654 26.252 108.493 25.7907 108.205 25.4648C107.917 25.1348 107.528 24.9697 107.037 24.9697Z" fill="black"/>
</svg>
